<svg id="Layer_1" height="512" viewBox="0 0 512 512" width="512" xmlns="http://www.w3.org/2000/svg" data-name="Layer 1"><path d="m428.688 335.788h-71.5a51.314 51.314 0 0 0 -33.007 11.84l-.033.023a76.643 76.643 0 0 0 -15.994-1.7h-104.307a76.7 76.7 0 0 0 -16 1.7l-.025-.023a51.373 51.373 0 0 0 -33.007-11.84h-71.5c-27.145 0-49.352 20.619-49.352 45.8v62.549h97.924v59.863h248.229v-59.863h97.924v-62.549c0-25.181-22.207-45.8-49.352-45.8z" fill="#6193ff"/><path d="m256 189.639a67.117 67.117 0 0 1 67.111 67.14c0 39.3-21.34 89.174-67.111 89.174-47.186 0-67.111-52.124-67.111-89.174a67.117 67.117 0 0 1 67.111-67.14z" fill="#ffd886"/><path d="m232.906 345.953h-29.059c-39.591 0-71.963 30.091-71.963 66.823v91.224h29.059v-91.224c0-36.732 32.371-66.823 71.963-66.823z" fill="#518bf2"/><path d="m392.937 228.624a46.043 46.043 0 0 1 46.031 46.03c0 26.943-14.641 61.134-46.031 61.134-32.342 0-46-35.721-46-61.134a46.018 46.018 0 0 1 46-46.03z" fill="#ffd886"/><path d="m119.063 228.624a46.043 46.043 0 0 0 -46.031 46.03c0 26.943 14.641 61.134 46.031 61.134 32.342 0 46-35.721 46-61.134a46.018 46.018 0 0 0 -46-46.03z" fill="#ffd886"/><path d="m361.966 274.654a46.031 46.031 0 0 1 38.487-45.409 45.986 45.986 0 0 0 -53.518 45.409c0 25.413 13.66 61.134 46 61.134a40.167 40.167 0 0 0 7.5-.71c-26.935-5.071-38.469-37.084-38.469-60.424z" fill="#f7c979"/><path d="m88.062 274.654a46.051 46.051 0 0 1 38.515-45.409 46.011 46.011 0 0 0 -53.545 45.409c0 26.943 14.641 61.134 46.031 61.134a40.548 40.548 0 0 0 7.53-.71c-26.221-4.966-38.531-35.729-38.531-60.424z" fill="#f7c979"/><path d="m241.128 236.074c30.751 24.081 52.812 28.3 81.512 30.956.312-3.468.471-6.9.471-10.251a67.111 67.111 0 1 0 -134.222 0c0 3.426.171 6.981.518 10.611z" fill="#784132"/><path d="m209.931 256.779c0-.617.025-1.228.042-1.841l-20.567 12.452c3.4 35.632 23.771 78.563 66.594 78.563a58.939 58.939 0 0 0 10.478-.922c-39.614-7.131-56.547-54.097-56.547-88.252z" fill="#f7c979"/><path d="m209.973 254.938a67.125 67.125 0 0 1 56.548-64.472 67.127 67.127 0 0 0 -77.632 66.313c0 3.426.171 6.981.517 10.611z" fill="#753b2e"/><path d="m197.511 504v-58.39a8.016 8.016 0 1 0 -16.032 0v58.39z" fill="#518bf2"/><path d="m330.521 504v-58.39a8.016 8.016 0 0 0 -16.032 0v58.39z" fill="#518bf2"/><path d="m333.192 64.107a7.016 7.016 0 0 1 -1.644 7.058l-31.466 32.351 6.438 44.664a7.015 7.015 0 0 1 -10.043 7.295l-40.477-19.93-40.507 19.931a7.015 7.015 0 0 1 -10.04-7.3l6.464-44.662-31.464-32.35a7.015 7.015 0 0 1 3.832-11.8l44.451-7.7 21.064-39.921a7.014 7.014 0 0 1 6.2-3.743 7.016 7.016 0 0 1 6.2 3.746l21.031 39.916 44.478 7.7a7.016 7.016 0 0 1 5.483 4.745zm-187.375 18.963-30.766-5.332-14.591-27.621a7.015 7.015 0 0 0 -6.2-3.739 7.016 7.016 0 0 0 -6.2 3.744l-14.572 27.616-30.788 5.332a7.015 7.015 0 0 0 -3.83 11.806l21.791 22.389-4.447 30.917a7.016 7.016 0 0 0 10.047 7.292l28-13.8 28.029 13.806a7.016 7.016 0 0 0 10.044-7.293l-4.447-30.92 21.763-22.394a7.016 7.016 0 0 0 -3.833-11.8zm328.962 4.747a7.015 7.015 0 0 0 -5.479-4.747l-30.794-5.333-14.59-27.62a7.017 7.017 0 0 0 -6.2-3.739 7.017 7.017 0 0 0 -6.2 3.744l-14.57 27.616-30.791 5.332a7.016 7.016 0 0 0 -3.831 11.806l21.791 22.389-4.446 30.917a7.015 7.015 0 0 0 10.046 7.292l28-13.8 28.028 13.806a7.015 7.015 0 0 0 10.044-7.293l-4.446-30.917 21.791-22.389a7.018 7.018 0 0 0 1.647-7.064z" fill="#ffab1e"/><path d="m131.884 444.137h-97.924v-62.549c0-25.181 22.207-45.8 49.352-45.8h71.5a51.373 51.373 0 0 1 33.007 11.84l.025.023c-31.948 6.807-55.961 33.494-55.961 65.125zm296.8-108.349h-71.5a51.314 51.314 0 0 0 -33.007 11.84l-.033.023c31.935 6.808 55.969 33.494 55.969 65.125v31.361h97.927v-62.549c0-25.181-22.207-45.8-49.352-45.8z" fill="#6464ff"/><path d="m404.078 444.137v-31.361c0-36.732-32.4-66.823-71.963-66.823h-5.807c-.724.542-1.438 1.1-2.128 1.675l-.033.023c31.935 6.808 55.969 33.494 55.969 65.125v31.361z" fill="#5e5ef7"/><path d="m187.82 347.628c-.69-.578-1.4-1.133-2.129-1.675h-5.421c-39.591 0-71.963 30.091-71.963 66.823v31.361h23.577v-31.361c0-31.631 24.013-58.318 55.961-65.125z" fill="#5e5ef7"/><g fill="#f49b19"><path d="m94.257 46.378a7.016 7.016 0 0 0 -6.2 3.744l-14.569 27.616-30.788 5.332a7.015 7.015 0 0 0 -3.83 11.806l21.791 22.389-4.447 30.918a7.017 7.017 0 0 0 10.047 7.292l28-13.805z"/><path d="m256 8a7.014 7.014 0 0 0 -6.205 3.743l-21.06 39.919-44.451 7.7a7.015 7.015 0 0 0 -3.832 11.8l31.464 32.351-6.464 44.661a7.015 7.015 0 0 0 10.04 7.3l40.508-19.929z"/><path d="m417.729 46.379h-.017a7.017 7.017 0 0 0 -6.2 3.744l-14.566 27.615-30.791 5.332a7.016 7.016 0 0 0 -3.831 11.806l21.791 22.389-4.446 30.918a7.016 7.016 0 0 0 10.046 7.292l28-13.806.013.007z"/></g></svg>