<svg xmlns="http://www.w3.org/2000/svg" version="1.1" xmlns:xlink="http://www.w3.org/1999/xlink" width="512" height="512" x="0" y="0" viewBox="0 0 496.278 496.278" style="enable-background:new 0 0 512 512" xml:space="preserve" class=""><g><path fill="#00adff" d="M462.875 186.654a9.339 9.339 0 0 1 9.339 9.339v261.658c0 21.333-17.294 38.627-38.627 38.627H62.691c-21.333 0-38.627-17.294-38.627-38.627V195.993a9.339 9.339 0 0 1 9.339-9.339z" opacity="1" data-original="#b3e5ee" class=""></path><path fill="#006eff" d="M52.379 186.654v264.009c0 17.474 14.211 31.689 31.68 31.689h329.16c17.468 0 31.68-14.216 31.68-31.689V186.654z" opacity="1" data-original="#86d7e5" class=""></path><path fill="#f9f7f7" d="M416.959 167.783H80.319c-4.39 0-7.94 3.56-7.94 7.95v238.87l108.484 39.625 67.776 7.795L411.081 432.7l13.818-18.097v-238.87c0-4.39-3.55-7.95-7.94-7.95z" opacity="1" data-original="#f9f7f7"></path><path fill="#f8f3f2" d="M241.139 167.783h15v294.57h-15z" opacity="1" data-original="#f8f3f2"></path><path fill="#f8f3f2" d="m156.07 167.783 43.989 68.482v5.313c0 8.797 4.383 16.585 11.076 21.31v8.354c0 17.481 14.222 31.703 31.703 31.703h11.604c17.481 0 31.703-14.222 31.703-31.703v-8.354c6.693-4.725 11.076-12.513 11.076-21.31v-5.313l43.989-68.482zM114.012 423.03V167.783H80.319c-4.39 0-7.94 3.56-7.94 7.95v238.87l42.984 15.7a20.439 20.439 0 0 1-1.351-7.273z" opacity="1" data-original="#f8f3f2"></path><g fill="#f2eae7"><path d="M248.639 462.023v.33H84.059c-6.45 0-11.68-5.23-11.68-11.69v-36.06h128.84c26.19 0 47.42 21.23 47.42 47.42z" fill="#f2eae7" opacity="1" data-original="#f2eae7"></path><path d="M424.899 414.603v36.06c0 6.46-5.23 11.69-11.68 11.69h-164.58v-.33c0-26.19 21.23-47.42 47.42-47.42z" fill="#f2eae7" opacity="1" data-original="#f2eae7"></path></g><path fill="#a59ca6" d="M271.143 240.655h-45.008v30.588c0 9.224 7.478 16.702 16.702 16.702h11.604c9.225 0 16.702-7.478 16.702-16.702z" opacity="1" data-original="#a59ca6"></path><path fill="#8f8390" d="M271.143 240.655H226.135v30.588c0 9.224 7.478 16.702 16.702 16.702h11.604c6.464 0 12.06-3.679 14.836-9.052-.644.075-1.296.125-1.961.125h-11.604c-7.338 0-13.563-4.735-15.801-11.316-.842-2.475.993-5.048 3.608-5.048h27.625v-21.999z" opacity="1" data-original="#8f8390" class=""></path><path fill="#fbe88c" d="M348.382 99.743C348.382 44.656 303.725 0 248.639 0s-99.743 44.656-99.743 99.743c0 21.371 6.724 41.169 18.168 57.402l47.995 74.718v9.716c0 6.117 4.959 11.076 11.076 11.076h45.008c6.117 0 11.076-4.959 11.076-11.076v-9.716l47.995-74.718c11.443-16.233 18.168-36.031 18.168-57.402z" opacity="1" data-original="#fbe88c" class=""></path><path fill="#fbe372" d="M209.126 169.872c-11.965-17.547-18.995-38.949-18.995-62.051 0-51.393 34.771-94.384 81.322-105.196A99.888 99.888 0 0 0 248.639 0c-55.086 0-99.743 44.656-99.743 99.743 0 21.371 6.724 41.169 18.168 57.402l47.995 74.718v9.716c0 6.117 4.959 11.076 11.076 11.076h28.505z" opacity="1" data-original="#fbe372" class=""></path><path fill="#f9de58" d="M255.208 252.655h15.003l5.22-88.575h8.544c12.226 0 22.172-9.946 22.172-22.171v-.91c0-12.225-9.946-22.171-22.172-22.171-11.721 0-21.443 9.166-22.133 20.867l-.553 9.385h-26.301l-.553-9.385c-.689-11.701-10.412-20.867-22.133-20.867-12.226 0-22.172 9.946-22.172 22.171v.91c0 12.225 9.946 22.171 22.172 22.171h8.544l5.219 88.572.069.003h14.935c0-.147-5.197-88.575-5.197-88.575h24.533c.001-.001-5.196 88.428-5.197 88.575zm21.608-112.078a7.18 7.18 0 0 1 7.159-6.75c3.955 0 7.172 3.217 7.172 7.171v.91c0 3.954-3.217 7.171-7.172 7.171h-7.66zm-64.513 8.502c-3.955 0-7.172-3.217-7.172-7.171v-.91c0-3.954 3.217-7.171 7.172-7.171a7.179 7.179 0 0 1 7.159 6.75l.501 8.502z" opacity="1" data-original="#f9de58" class=""></path><path fill="#fbe88c" d="M380.013 49.451a7.5 7.5 0 0 1-4.951-13.136l16.364-14.368a7.5 7.5 0 0 1 9.896 11.272l-16.364 14.368a7.47 7.47 0 0 1-4.945 1.864zM396.372 110.917a7.47 7.47 0 0 1-4.946-1.864l-16.364-14.369c-3.112-2.733-3.42-7.472-.687-10.584s7.472-3.422 10.584-.688l16.364 14.369a7.5 7.5 0 0 1-4.951 13.136zM117.264 49.451a7.467 7.467 0 0 1-4.945-1.864L95.955 33.219a7.5 7.5 0 0 1 9.896-11.272l16.364 14.368a7.5 7.5 0 0 1-4.951 13.136zM100.906 110.917a7.5 7.5 0 0 1-4.952-13.136l16.364-14.369a7.5 7.5 0 0 1 9.897 11.272l-16.364 14.369a7.47 7.47 0 0 1-4.945 1.864z" opacity="1" data-original="#fbe88c" class=""></path><path fill="#f2eae7" d="M174.782 260.155h-73.879c-4.142 0-7.5-3.357-7.5-7.5s3.358-7.5 7.5-7.5h73.879c4.142 0 7.5 3.357 7.5 7.5s-3.358 7.5-7.5 7.5zM197.631 298.305h-83.179c-4.142 0-7.5-3.357-7.5-7.5s3.358-7.5 7.5-7.5h83.179c4.142 0 7.5 3.357 7.5 7.5s-3.358 7.5-7.5 7.5zM197.631 334.846h-83.179c-4.142 0-7.5-3.357-7.5-7.5s3.358-7.5 7.5-7.5h83.179c4.142 0 7.5 3.357 7.5 7.5s-3.358 7.5-7.5 7.5zM197.631 371.387h-83.179c-4.142 0-7.5-3.357-7.5-7.5s3.358-7.5 7.5-7.5h83.179c4.142 0 7.5 3.357 7.5 7.5s-3.358 7.5-7.5 7.5zM396.375 260.155h-73.879c-4.142 0-7.5-3.357-7.5-7.5s3.358-7.5 7.5-7.5h73.879c4.142 0 7.5 3.357 7.5 7.5s-3.358 7.5-7.5 7.5zM382.826 298.305h-83.179c-4.142 0-7.5-3.357-7.5-7.5s3.358-7.5 7.5-7.5h83.179c4.142 0 7.5 3.357 7.5 7.5s-3.357 7.5-7.5 7.5zM382.826 334.846h-83.179c-4.142 0-7.5-3.357-7.5-7.5s3.358-7.5 7.5-7.5h83.179c4.142 0 7.5 3.357 7.5 7.5s-3.357 7.5-7.5 7.5zM382.826 371.387h-83.179c-4.142 0-7.5-3.357-7.5-7.5s3.358-7.5 7.5-7.5h83.179c4.142 0 7.5 3.357 7.5 7.5s-3.357 7.5-7.5 7.5z" opacity="1" data-original="#f2eae7"></path><g fill="#ede2dd"><path d="M252.374 443.546a47.28 47.28 0 0 0-3.735 18.477v.33h164.58c6.45 0 11.68-5.23 11.68-11.69v-7.116H252.374z" fill="#ede2dd" opacity="1" data-original="#ede2dd" class=""></path><path d="M134.528 443.546c-11.331 0-20.516-9.185-20.516-20.516v-8.427H72.379v36.06c0 6.46 5.23 11.69 11.68 11.69h164.58v-.33c0-6.555-1.33-12.798-3.735-18.477z" fill="#ede2dd" opacity="1" data-original="#ede2dd" class=""></path></g></g></svg>